<svg xmlns="http://www.w3.org/2000/svg" viewBox="0 0 242.5 52.32"><defs><style>.cls-1{isolation:isolate;}.cls-2{font-size:14px;font-family:ArialMT, Arial;}.cls-2,.cls-5{fill:#fff;}.cls-3{letter-spacing:-0.06em;}.cls-4{letter-spacing:-0.04em;}</style></defs><g id="Layer_2" data-name="Layer 2"><g id="Layer_1-2" data-name="Layer 1"><g id="Group_7637" data-name="Group 7637"><g id="Group_7636" data-name="Group 7636"><g id="Group_7634" data-name="Group 7634"><g id="Group_282" data-name="Group 282"><g id="National_Center" data-name="National Center" class="cls-1"><text class="cls-2" transform="translate(87 12.78)">National Center</text></g><g id="for_Advancing" data-name="for Advancing" class="cls-1"><text class="cls-2" transform="translate(87 30.78)">for<tspan class="cls-3" x="16.34" y="0"> </tspan><tspan x="19.46" y="0">Advancing</tspan></text></g><g id="Translational_Sciences" data-name="Translational Sciences" class="cls-1"><text class="cls-2" transform="translate(87 47.78)"><tspan class="cls-4">T</tspan><tspan x="8.03" y="0">ranslational Sciences</tspan></text></g><path id="Path_88" data-name="Path 88" class="cls-5" d="M55.19.16H4.38A4.41,4.41,0,0,0,0,4.53V46a4.41,4.41,0,0,0,4.38,4.37H55.19L69.11,25.22ZM26,35.46H22.28L12.53,20.54a7,7,0,0,1-.6-1.19h-.1a17.19,17.19,0,0,1,.1,2.78V35.46H8.65V15.07h4l9.44,14.62a7.12,7.12,0,0,1,.8,1.29H23a19.82,19.82,0,0,1-.1-2.78V15.07h3.29V35.46Zm8.56,0H31V15.07h3.48Zm18,0V26.61H43v8.85H39.58V15.07H43v8.55h9.55V15.07h3.38V35.46Z"/></g><path id="Path_89" data-name="Path 89" class="cls-5" d="M60.8,50.28A7.56,7.56,0,0,0,66,47.19l.5-1,11.64-21-11.64-21-.5-1A7.51,7.51,0,0,0,60.8.16a13.29,13.29,0,0,0-4.08,0h-.2l13.83,25v.2l-13.83,25h.2A13.29,13.29,0,0,0,60.8,50.28Z"/></g><line id="Line_43" data-name="Line 43" class="cls-5" x1="242.5" y1="2.28" x2="242.5" y2="49.28"/></g></g></g></g></svg>